<svg xmlns="http://www.w3.org/2000/svg" width="176.769" height="50.829" viewBox="0 0 176.769 50.829">
  <g id="Group_615" data-name="Group 615" transform="translate(-77.151 -33.599)">
    <g id="Group_612" data-name="Group 612" transform="translate(77.151 37.092)">
      <g id="Group_1" data-name="Group 1" transform="translate(0 0)">
        <path id="Path_1" data-name="Path 1" d="M3648.281-2054.565c-4.459-3.952-6.979-8.451-6.082-14.366,1.1-7.263,5.758-12.11,13.042-12.222,16.65-.256,33.306-.055,49.96-.029a3.217,3.217,0,0,1,.8.3v9.535H3680.96v8.883h14.833v10.093H3680.8v18.415h-13.129c-2.951,0-5.9.011-8.855,0a12.7,12.7,0,0,1-11.635-18.435C3647.491-2053.049,3647.839-2053.691,3648.281-2054.565Zm21.921-18.157c-5.153,0-10.074-.211-14.967.073-3.331.193-3.167,3.214-3.237,5.542-.077,2.561.163,5.454,3.586,5.63,4.792.246,9.605.062,14.617.062Zm.008,30.018v-8.527c-4.385,0-8.571-.115-12.747.039-2.942.109-2.622,2.517-2.61,4.485.012,1.92,0,3.991,2.8,4C3661.74-2042.7,3665.828-2042.7,3670.21-2042.7Z" transform="translate(-3642.02 2081.282)" fill="#87ffff"/>
      </g>
    </g>
    <text id="BeFixx" transform="translate(154.92 72.599)" fill="#fff" font-size="36" font-family="SegoeUI, Segoe UI"><tspan x="0" y="0">BeFixx</tspan></text>
  </g>
</svg>
